<svg xmlns="http://www.w3.org/2000/svg" version="1.1" xmlns:xlink="http://www.w3.org/1999/xlink" xmlns:svgjs="http://svgjs.dev/svgjs" viewBox="0 0 1920 1080" style="overflow: hidden; height: 85vh;" class="overflow-hidden rounded-md drop-shadow-lg transition duration-300"><rect width="1920" height="1080" fill="#62588a"/><g clip-path="url(&quot;#SvgjsClipPath1224&quot;)"><g transform="matrix(0.14014974491591983,-1.1414280743875203,1.1414280743875203,0.14014974491591983,185.8178144338716,1529.2034140042006)"><path d="M0,-1080C5.092082314830509,-982.956441838346,35.37188546164377,-683.9651505239403,30.55249388898305,-497.73865103007586C25.733102316322327,-311.5121515362114,-32.47863509634977,-131.53761859324823,-28.916349435964342,37.3589969631869C-25.354063775578915,206.255612519622,56.12517722909391,347.89781801191054,51.926207851295615,515.6410423085348C47.72723847349732,683.384266605159,-55.23273104367709,851.3114380381631,-54.110165702754074,1043.8183427429321C-52.987600361831056,1236.325247447701,49.64323894637471,1484.652194327637,58.66159989683372,1670.6824705371484C67.67996084729273,1856.7127467466598,9.776933316138953,2078.447078422858,0,2160L 1920 2160 L 1920 -1080 Z" fill="url(&quot;#SvgjsLinearGradient1222&quot;)"/><path d="M960,-1080C950.2927105676558,-997.3152130248702,901.6732846608925,-736.3762246901707,901.7562634059351,-583.8912781492213C901.8392421509777,-431.4063316082719,942.5179546463759,-311.92937964119267,960.4978724702559,-165.09032075430375C978.4777902941358,-18.251261867414826,1014.9450532562419,148.96402785554457,1009.6357703492152,297.1430751721122C1004.3264874421886,445.32212248867984,940.1983612773575,559.4683815207742,928.6421750280964,723.983963145102C917.0859887788353,888.4995447694299,936.0964635809714,1125.4299387191156,940.2986528536485,1284.2365649180797C944.5008421263256,1443.0431911170438,950.5717528064338,1530.8631478252335,953.855310664159,1676.823720338887C957.1388685218842,1822.7842928525404,958.9758851106932,2079.470620056481,960,2160L 1920 2160 L 1920 -1080 Z" fill="url(&quot;#SvgjsLinearGradient1223&quot;)"/></g></g><defs><linearGradient x1="0.1" y1="0" x2="0" y2="1" id="SvgjsLinearGradient1222"><stop stop-color="#62588a" offset="0"/><stop stop-color="#5a588a" offset="0"/></linearGradient><linearGradient x1="0.1" y1="0" x2="0" y2="1" id="SvgjsLinearGradient1223"><stop stop-color="#b8b2ce" offset="0"/><stop stop-color="#b3b2ce" offset="0.5"/></linearGradient><clipPath id="SvgjsClipPath1224"><rect width="1920" height="1080"/></clipPath></defs></svg>